#N canvas 827 239 734 565 12;
#X obj 512 70 adc~;
#X obj 795 721 dac~;
#X obj 345 202 change;
#X obj 357 241 tgl 19 0 empty empty empty 0 -10 0 12 #fcfcfc #000000 #000000 0 1;
#X obj 533 201 change;
#X obj 537 235 tgl 19 0 empty empty empty 0 -10 0 12 #fcfcfc #000000 #000000 0 1;
#X obj 534 169 r sw0_press @hv_param;
#X obj 346 170 r sw1_press @hv_param;
#X obj 751 645 dac~;
#X obj 790 264 osc~ 300;
#X obj 790 290 *~ 0.4;
#X text 703 167 comment;
#X obj 908 300 *~ 0.4;
#X obj 908 274 osc~ 350;
#X obj 769 446 *~;
#X obj 896 455 *~;
#X connect 2 0 3 0;
#X connect 3 0 14 1;
#X connect 4 0 5 0;
#X connect 5 0 15 1;
#X connect 6 0 4 0;
#X connect 7 0 2 0;
#X connect 9 0 10 0;
#X connect 10 0 14 0;
#X connect 12 0 15 0;
#X connect 13 0 12 0;
#X connect 14 0 8 0;
#X connect 14 0 8 1;
#X connect 15 0 8 1;
#X connect 15 0 8 0;
