#N canvas -2560 134 1385 831 12;
#X obj 801 941 s 1-grain_pitch;
#X obj 298 479 s 1-on_off;
#N canvas 0 0 450 250 (subpatch) 0;
#X array 1-poly_grain-L 4.97449e+06 float 2;
#X coords 0 1 4.97449e+06 -1 178 123 1;
#X restore 72 679 graph;
#X obj 37 222 ys.granular_brain 1;
#X obj 292 346 change;
#X obj 301 448 tgl 19 0 empty empty empty 0 -10 0 12 #fcfcfc #000000 #000000 0 1;
#X obj 872 586 s 1-sample_offset;
#N canvas 268 232 902 541 sampler 0;
#X obj 248 160 timer;
#X obj 243 105 sel 1 0;
#X floatatom 248 181 7 0 0 0 - - - 0;
#X obj 231 327 adc~;
#X msg 275 311 \$1 5;
#X obj 275 332 line~;
#X obj 186 432 *~;
#X obj 231 184 bng 15 250 50 0 empty empty empty 17 7 0 10 #fcfcfc #000000 #000000;
#X msg 70 321 stop, f 8;
#X obj 171 228 bng 15 250 50 0 empty empty empty 17 7 0 10 #fcfcfc #000000 #000000;
#X obj 143 192 t b b;
#X obj 458 460 *~;
#X obj 442 424 tgl 16 0 empty empty empty 0 -8 0 10 #fcfcfc #000000 #000000 0 1;
#X obj 184 27 inlet;
#X obj 432 396 r monostereo;
#X obj 253 209 t b f;
#X text 506 463 fix stereo input at some point;
#X obj 340 249 * 48;
#X obj 111 513 tabwrite~ 1-poly_grain-L;
#X obj 397 284 s 1-samplelength;
#X floatatom 342 293 8 0 0 0 - - - 0;
#X obj 276 516 tabwrite~ 1-poly_grain-R;
#X obj 275 434 *~;
#X obj 65 397 print;
#X obj 111 225 bng 25 250 50 0 empty empty empty 17 7 0 10 #e4e4e4 #4d4d4d #373737;
#X obj 103 282 delay 200;
#X connect 0 0 2 0;
#X connect 1 0 0 0;
#X connect 1 0 9 0;
#X connect 1 1 0 1;
#X connect 1 1 10 0;
#X connect 2 0 15 0;
#X connect 3 0 6 0;
#X connect 3 1 22 0;
#X connect 4 0 5 0;
#X connect 5 0 6 1;
#X connect 5 0 22 1;
#X connect 6 0 18 0;
#X connect 6 0 11 0;
#X connect 7 0 2 0;
#X connect 8 0 18 0;
#X connect 8 0 21 0;
#X connect 8 0 23 0;
#X connect 9 0 18 0;
#X connect 9 0 21 0;
#X connect 10 1 25 0;
#X connect 11 0 21 0;
#X connect 12 0 11 1;
#X connect 13 0 1 0;
#X connect 13 0 4 0;
#X connect 14 0 12 0;
#X connect 15 1 17 0;
#X connect 17 0 19 0;
#X connect 17 0 20 0;
#X connect 22 0 21 0;
#X connect 24 0 25 0;
#X connect 25 0 8 0;
#X restore 143 501 pd sampler;
#X obj 123 341 change;
#X obj 145 435 tgl 19 0 empty empty empty 0 -10 0 12 #fcfcfc #000000 #000000 0 1;
#X obj 124 309 r sw0_press @hv_param;
#X floatatom 837 888 5 0 0 0 - - - 12;
#X obj 216 346 loadbang;
#X msg 217 386 0;
#X obj 619 130 hsl 162 19 0 1 0 0 empty empty empty -2 -10 0 12 #fcfcfc #000000 #000000 0 1;
#X obj 293 314 r sw1_press @hv_param;
#X obj 740 45 r knob2 @hv_param;
#X obj 792 614 r knob1 @hv_param;
#X obj 831 823 / 2;
#X text 32 21 To-do:;
#X obj 879 220 f;
#X obj 879 39 loadbang;
#X floatatom 880 245 5 0 0 0 - - - 0;
#X floatatom 815 183 5 0 0 0 - - - 0;
#X text 949 38 startup string calibration;
#X obj 741 271 f;
#X obj 636 216 bng 19 250 50 0 empty empty empty 0 -10 0 12 #fcfcfc #000000 #000000;
#X obj 858 110 bng 19 250 50 0 empty empty empty 0 -10 0 12 #fcfcfc #000000 #000000;
#X msg 698 222 1;
#X obj 508 128 sel 1;
#X obj 840 858 spigot;
#X obj 901 735 r sw2_press @hv_param;
#X obj 901 771 change;
#X obj 901 795 tgl 19 0 empty empty empty 0 -10 0 12 #fcfcfc #000000 #000000 0 1;
#X obj 953 770 loadbang;
#X msg 954 798 0;
#X obj 897 864 sel 0 1;
#X obj 896 904 s pitchReset;
#X obj 874 827 t f f;
#X obj 403 354 r sw3_press @hv_param;
#X obj 409 405 tgl 19 0 empty empty empty 0 -10 0 12 #fcfcfc #000000 #000000 0 1;
#X obj 403 378 change;
#X obj 457 380 loadbang;
#X msg 458 408 0;
#X obj 409 429 s filterOn;
#X floatatom 792 638 5 0 0 0 - - - 0;
#X obj 518 689 r knob3 @hv_param;
#X obj 518 715 s filterString;
#X obj 757 858 loadbang;
#X msg 757 884 0.25;
#X obj 939 551 hsl 162 19 0 1 0 0 empty empty empty -2 -10 0 12 #fcfcfc #000000 #000000 0 1;
#X obj 856 148 t b b;
#X obj 702 184 loadbang;
#X obj 831 780 + 0.03;
#X obj 507 70 r sw4_press @hv_param;
#X obj 507 96 change;
#X obj 143 469 t f b;
#X text 94 432 record;
#X text 334 447 play;
#N canvas 0 0 450 250 (subpatch) 0;
#X array 1-poly_grain-R 4.97449e+06 float 2;
#X coords 0 1 4.97449e+06 -1 178 123 1;
#X restore 252 679 graph;
#X text 954 831 pitch control system;
#N canvas 0 22 450 300 startup_settings 0;
#X obj 255 515 loadbang;
#X msg 167 541 1;
#X msg 539 539 0;
#X obj 391 567 s 1-grainplay_chance;
#X obj 252 494 s 1-global_pan;
#X obj 478 697 s 1-offset_random;
#X obj 652 349 s 1-grain_density;
#X obj 344 675 s 1-random_pitch;
#X obj 255 570 s 1-random_panning;
#X obj 631 568 s 1-reverse_random;
#X obj 540 568 s 1-reverse;
#X obj 167 570 s 1-volume;
#X msg 252 464 0.5;
#X obj 252 434 loadbang;
#X obj 344 619 loadbang;
#X obj 476 613 loadbang;
#X obj 557 349 s 1-grain_size;
#X msg 344 645 0;
#X obj 182 679 send 1-autoplay_on_off;
#X obj 183 628 loadbang;
#X msg 183 654 0;
#X msg 391 527 1;
#X obj 390 497 loadbang;
#X obj 167 509 loadbang;
#X obj 540 512 loadbang;
#X msg 630 541 0;
#X obj 631 514 loadbang;
#X msg 478 666 0.02;
#X msg 549 660 0;
#X msg 255 541 0.15;
#X msg 324 531 0.5;
#X floatatom 351 195 15 0 0 0 - - - 0;
#X obj 351 227 send 1-samplelength;
#X obj 352 128 loadbang;
#X obj 344 315 s 1-grain_pitch;
#X msg 344 284 0.25;
#X obj 97 110 samplerate~;
#X obj 101 89 bng 15 250 50 0 empty empty empty 17 7 0 10 #fcfcfc #000000 #000000;
#X floatatom 100 136 5 0 0 0 - - - 16;
#X obj 100 60 loadbang;
#X obj 100 170 s samplerate;
#X obj 345 256 r pitchReset;
#X msg 352 162 384000;
#X obj 110 268 tgl 16 0 empty empty empty 0 -8 0 10 #fcfcfc #000000 #000000 0 1;
#X obj 104 300 s monostereo;
#X obj 107 212 loadbang;
#X msg 107 238 0;
#X text 138 266 on for mono (not using now);
#X text 130 15 important settings;
#X text 130 390 granular engine parameters that are fixed in the STR-500 but probably need to be set on startup;
#X obj 510 150 /;
#X msg 515 105 1 \$1;
#X floatatom 510 176 5 0 0 0 - - - 12;
#X obj 660 115 /;
#X floatatom 660 141 5 0 0 0 - - - 12;
#X obj 515 79 r 1-numgrains;
#X obj 689 82 r 1-numgrains;
#X obj 555 286 loadbang;
#X obj 661 275 loadbang;
#X msg 555 312 0.16667;
#X msg 661 301 0.028;
#X connect 0 0 29 0;
#X connect 1 0 11 0;
#X connect 2 0 10 0;
#X connect 12 0 4 0;
#X connect 13 0 12 0;
#X connect 14 0 17 0;
#X connect 15 0 27 0;
#X connect 17 0 7 0;
#X connect 19 0 20 0;
#X connect 20 0 18 0;
#X connect 21 0 3 0;
#X connect 22 0 21 0;
#X connect 23 0 1 0;
#X connect 24 0 2 0;
#X connect 25 0 9 0;
#X connect 26 0 25 0;
#X connect 27 0 5 0;
#X connect 28 0 5 0;
#X connect 29 0 8 0;
#X connect 30 0 8 0;
#X connect 31 0 32 0;
#X connect 33 0 42 0;
#X connect 35 0 34 0;
#X connect 36 0 38 0;
#X connect 37 0 36 0;
#X connect 38 0 40 0;
#X connect 39 0 37 0;
#X connect 41 0 35 0;
#X connect 42 0 31 0;
#X connect 43 0 44 0;
#X connect 45 0 46 0;
#X connect 46 0 43 0;
#X connect 50 0 52 0;
#X connect 51 0 50 0;
#X connect 52 0 53 0;
#X connect 53 0 54 0;
#X connect 55 0 51 0;
#X connect 56 0 53 1;
#X connect 57 0 59 0;
#X connect 58 0 60 0;
#X connect 59 0 16 0;
#X connect 60 0 6 0;
#X restore 89 821 pd startup_settings;
#X obj 922 339 -;
#X floatatom 918 369 5 0 0 0 - - - 12;
#X obj 914 306 t b f;
#X obj 870 499 *;
#X obj 920 454 /;
#X obj 914 401 t b f;
#X msg 915 430 1;
#X floatatom 920 478 5 0 0 0 - - - 0;
#X obj 814 384 -;
#X text 961 368 total range;
#X obj 880 273 t b f f f;
#X text 886 109 set min;
#X floatatom 746 303 5 0 0 0 - - - 12;
#X obj 870 525 clip 0 1;
#X floatatom 870 551 5 0 0 0 - - - 12;
#X text 615 108 string debug;
#X text 578 215 set max;
#X text 742 20 string;
#X obj 862 76 delay 100;
#X obj 511 540 tgl 16 0 empty empty empty 0 -8 0 10 #fcfcfc #000000 #000000 0 1;
#X obj 505 572 s monostereo;
#X obj 508 484 loadbang;
#X msg 508 510 0;
#X text 539 538 on for mono (not using now \, only debug);
#X obj 650 878 s currentPitch;
#X msg 1000 896 0.5;
#X obj 1000 922 s currentPitch;
#X obj 672 817 spigot;
#X obj 1129 76 sel 1;
#X obj 1128 44 change;
#X obj 1128 18 r sw5_press @hv_param;
#X obj 792 689 - 1;
#X obj 792 715 abs;
#X text 829 689 reverse axis;
#X obj 1114 261 s led @hv_param;
#X text 1084 305 for some reason 0 is on \, 1 is off;
#N canvas 0 22 450 300 flash2 0;
#X msg 599 307 1;
#X msg 644 307 0;
#X obj 584 120 inlet;
#X msg 735 624 0;
#X obj 613 185 bng 25 250 50 0 empty empty empty 17 7 0 10 #e4e4e4 #4d4d4d #373737;
#X obj 597 641 tgl 25 0 empty empty empty 17 7 0 10 #e4e4e4 #4d4d4d #373737 0 1;
#X obj 613 684 outlet;
#X obj 663 377 t b;
#X obj 716 562 t b;
#X msg 677 485 1;
#X obj 644 274 delay 50;
#X obj 692 438 delay 50;
#X obj 730 596 delay 50;
#X connect 0 0 5 0;
#X connect 1 0 5 0;
#X connect 1 0 7 0;
#X connect 2 0 4 0;
#X connect 3 0 5 0;
#X connect 4 0 0 0;
#X connect 4 0 10 0;
#X connect 5 0 6 0;
#X connect 7 0 11 0;
#X connect 8 0 12 0;
#X connect 9 0 5 0;
#X connect 9 0 8 0;
#X connect 10 0 1 0;
#X connect 11 0 9 0;
#X connect 12 0 3 0;
#X restore 1114 228 pd flash2;
#N canvas 0 22 450 300 flash3 0;
#X msg 599 307 1;
#X msg 644 307 0;
#X obj 584 120 inlet;
#X msg 734 599 0;
#X obj 613 185 bng 25 250 50 0 empty empty empty 17 7 0 10 #e4e4e4 #4d4d4d #373737;
#X obj 597 711 tgl 25 0 empty empty empty 17 7 0 10 #e4e4e4 #4d4d4d #373737 0 1;
#X obj 613 754 outlet;
#X obj 663 377 t b;
#X obj 715 537 t b;
#X msg 676 510 1;
#X obj 644 274 delay 50;
#X obj 691 463 delay 50;
#X obj 729 571 delay 50;
#X msg 897 686 0;
#X obj 878 624 t b;
#X msg 839 597 1;
#X obj 854 550 delay 50;
#X obj 892 658 delay 50;
#X obj 853 514 t b;
#X connect 0 0 5 0;
#X connect 1 0 7 0;
#X connect 1 0 5 0;
#X connect 2 0 4 0;
#X connect 3 0 5 0;
#X connect 3 0 18 0;
#X connect 4 0 0 0;
#X connect 4 0 10 0;
#X connect 5 0 6 0;
#X connect 7 0 11 0;
#X connect 8 0 12 0;
#X connect 9 0 8 0;
#X connect 9 0 5 0;
#X connect 10 0 1 0;
#X connect 11 0 9 0;
#X connect 12 0 3 0;
#X connect 13 0 5 0;
#X connect 14 0 17 0;
#X connect 15 0 14 0;
#X connect 15 0 5 0;
#X connect 16 0 15 0;
#X connect 17 0 13 0;
#X connect 18 0 16 0;
#X restore 595 288 pd flash3;
#X obj 94 556 s led @hv_param;
#N canvas 0 22 450 300 flash1 0;
#X msg 599 307 1;
#X msg 644 307 0;
#X obj 584 120 inlet;
#X obj 613 185 bng 25 250 50 0 empty empty empty 17 7 0 10 #e4e4e4 #4d4d4d #373737;
#X obj 597 641 tgl 25 0 empty empty empty 17 7 0 10 #e4e4e4 #4d4d4d #373737 0 1;
#X obj 613 684 outlet;
#X obj 644 274 delay 50;
#X connect 0 0 4 0;
#X connect 1 0 4 0;
#X connect 2 0 3 0;
#X connect 3 0 0 0;
#X connect 3 0 6 0;
#X connect 4 0 5 0;
#X connect 6 0 1 0;
#X restore 94 526 pd flash1;
#X obj 606 327 s led @hv_param;
#X text 37 95 test loop recording;
#X text 37 43 better end-of-string triggering -> fade volume down if string goes over 1?;
#X connect 4 0 5 0;
#X connect 5 0 1 0;
#X connect 8 0 9 0;
#X connect 9 0 56 0;
#X connect 10 0 8 0;
#X connect 11 0 0 0;
#X connect 12 0 13 0;
#X connect 13 0 9 0;
#X connect 13 0 5 0;
#X connect 14 0 23 0;
#X connect 15 0 4 0;
#X connect 16 0 23 0;
#X connect 17 0 45 0;
#X connect 18 0 30 0;
#X connect 20 0 22 0;
#X connect 21 0 80 0;
#X connect 22 0 72 0;
#X connect 23 0 25 1;
#X connect 23 0 20 1;
#X connect 23 0 70 0;
#X connect 25 0 74 0;
#X connect 26 0 25 0;
#X connect 27 0 51 0;
#X connect 28 0 25 0;
#X connect 29 0 26 0;
#X connect 29 0 99 0;
#X connect 30 0 11 0;
#X connect 31 0 32 0;
#X connect 32 0 33 0;
#X connect 33 0 38 0;
#X connect 34 0 35 0;
#X connect 35 0 33 0;
#X connect 36 0 37 0;
#X connect 36 0 87 0;
#X connect 38 0 36 0;
#X connect 38 1 30 1;
#X connect 38 1 89 1;
#X connect 39 0 41 0;
#X connect 40 0 44 0;
#X connect 41 0 40 0;
#X connect 42 0 43 0;
#X connect 43 0 40 0;
#X connect 45 0 93 0;
#X connect 46 0 47 0;
#X connect 48 0 49 0;
#X connect 49 0 0 0;
#X connect 50 0 6 0;
#X connect 51 0 20 0;
#X connect 51 1 23 0;
#X connect 52 0 28 0;
#X connect 53 0 18 0;
#X connect 54 0 55 0;
#X connect 55 0 29 0;
#X connect 56 0 7 0;
#X connect 56 1 101 0;
#X connect 62 0 63 0;
#X connect 63 0 67 0;
#X connect 64 0 62 0;
#X connect 64 1 62 1;
#X connect 65 0 75 0;
#X connect 66 0 69 0;
#X connect 67 0 68 0;
#X connect 67 1 66 1;
#X connect 68 0 66 0;
#X connect 69 0 65 1;
#X connect 70 0 65 0;
#X connect 72 2 64 0;
#X connect 72 3 70 1;
#X connect 74 0 62 0;
#X connect 75 0 76 0;
#X connect 76 0 6 0;
#X connect 80 0 27 0;
#X connect 81 0 82 0;
#X connect 83 0 84 0;
#X connect 84 0 81 0;
#X connect 87 0 88 0;
#X connect 89 0 86 0;
#X connect 90 0 27 0;
#X connect 90 0 98 0;
#X connect 91 0 90 0;
#X connect 92 0 91 0;
#X connect 93 0 94 0;
#X connect 94 0 89 0;
#X connect 94 0 53 0;
#X connect 98 0 96 0;
#X connect 99 0 102 0;
#X connect 101 0 100 0;
