#N canvas 94 254 648 582 12;
#X obj 133 297 soundfiler;
#X floatatom 138 330 15 0 0 0 - - - 0;
#X obj 225 227 openpanel;
#X obj 240 187 bng 15 250 50 0 empty empty choose_file 17 7 0 10 #fcfcfc #000000 #000000;
#X obj 139 381 send 1-samplelength;
#X obj 225 297 bng 25 250 50 0 empty empty empty 17 7 0 10 #e4e4e4 #4d4d4d #373737;
#X msg 138 263 read -resize \$1 1-poly_grain-L 1-poly_grain-R;
#X obj 414 541 r 1-samplelength;
#X obj 208 774 tabread4~ 1-poly_grain-L;
#X obj 376 776 tabread4~ 1-poly_grain-R;
#X obj 254 553 phasor~;
#X obj 257 718 *~;
#X obj 341 817 dac~;
#X obj 420 575 t b f, f 8;
#X obj 459 675 /;
#X msg 435 624 44100;
#X floatatom 459 701 5 0 0 0 - - - 12;
#X obj 237 623 *~;
#X obj 180 571 tgl 25 0 empty empty empty 17 7 0 10 #e4e4e4 #4d4d4d #373737 0 1;
#X connect 0 0 1 0;
#X connect 1 0 4 0;
#X connect 2 0 6 0;
#X connect 3 0 2 0;
#X connect 5 0 1 0;
#X connect 6 0 0 0;
#X connect 7 0 11 1;
#X connect 7 0 13 0;
#X connect 8 0 12 0;
#X connect 9 0 12 1;
#X connect 10 0 17 0;
#X connect 11 0 8 0;
#X connect 11 0 9 0;
#X connect 13 0 15 0;
#X connect 13 1 14 1;
#X connect 14 0 16 0;
#X connect 15 0 14 0;
#X connect 16 0 10 0;
#X connect 17 0 11 0;
#X connect 18 0 17 1;
